<svg xmlns="http://www.w3.org/2000/svg" width="32" height="30" viewBox="0 0 32 30">
  <path id="Icon" d="M33.778,12.922c-.38-1.673-3.021-3.431-4.659-3.255.125-.625-2.56-2.767-3.083-3.1C23.251,4.791,19.781,3.033,16.362,3,9.585,2.935,6.62,8.287,5.2,9.725,4.334,10.6,3.013,11.893,2.01,13H5.2c-.847,1.491-3.513,4.759-3.189,8.333a7.07,7.07,0,0,1,3.413-2.812C3.356,25.011,6.2,31.333,9.983,33c-.448-2.083-.5-5.625,0-6.667,1.919,3.392,6.148,5.8,7.973,6.667,0-3.542-.349-7.936,1.595-11.666,1.258-2.415,3.837-5,6.378-5h6.378A19.087,19.087,0,0,0,33.9,18c0-1.2.106-2.272.075-3.333A9.373,9.373,0,0,0,33.778,12.922ZM22.142,11.5a2.635,2.635,0,0,1-2.591-1.836C19.208,9.27,18.224,8.56,17.956,8c.685.677,5.78,1.667,6.378,1.667C24.335,10.552,23.986,11.5,22.142,11.5Z" transform="translate(-1.983 -3)" fill="#0d395c"/>
</svg>
